<mxfile host="app.diagrams.net" agent="Mozilla/5.0 (Windows NT 10.0; Win64; x64) AppleWebKit/537.36 (KHTML, like Gecko) Chrome/138.0.0.0 Safari/537.36" version="28.0.5">
  <diagram name="第 1 页" id="RnAQOA-04IUPBppA1qRN">
    <mxGraphModel dx="983" dy="568" grid="0" gridSize="10" guides="1" tooltips="1" connect="1" arrows="1" fold="1" page="1" pageScale="1" pageWidth="827" pageHeight="1169" math="0" shadow="1">
      <root>
        <mxCell id="0" />
        <mxCell id="1" parent="0" />
        <mxCell id="EKCTxqVes-D55SE5iIpg-1" value="&lt;font style=&quot;color: light-dark(rgb(255, 255, 255), rgb(255, 255, 255));&quot;&gt;数据块&lt;/font&gt;" style="rounded=0;whiteSpace=wrap;html=1;fillColor=#6a00ff;fontColor=#ffffff;strokeColor=light-dark(#3700CC,#FFFFFF);shadow=0;sketch=1;curveFitting=1;jiggle=2;fontFamily=Comic Sans MS;align=center;" parent="1" vertex="1">
          <mxGeometry x="121" y="146" width="86" height="27" as="geometry" />
        </mxCell>
        <mxCell id="g61i2aG3pp-v_uBdfmHI-1" value="" style="rounded=0;whiteSpace=wrap;html=1;fillColor=#6a00ff;fontColor=#ffffff;strokeColor=light-dark(#3700CC,#FFFFFF);shadow=0;sketch=1;curveFitting=1;jiggle=2;fontFamily=Comic Sans MS;align=center;" parent="1" vertex="1">
          <mxGeometry x="121" y="173" width="86" height="27" as="geometry" />
        </mxCell>
        <mxCell id="g61i2aG3pp-v_uBdfmHI-7" value="" style="endArrow=none;dashed=1;html=1;rounded=0;" parent="1" edge="1">
          <mxGeometry width="50" height="50" relative="1" as="geometry">
            <mxPoint x="208" y="143" as="sourcePoint" />
            <mxPoint x="240" y="125" as="targetPoint" />
          </mxGeometry>
        </mxCell>
        <mxCell id="g61i2aG3pp-v_uBdfmHI-8" value="" style="endArrow=none;dashed=1;html=1;rounded=0;" parent="1" edge="1">
          <mxGeometry width="50" height="50" relative="1" as="geometry">
            <mxPoint x="211" y="173" as="sourcePoint" />
            <mxPoint x="240" y="184" as="targetPoint" />
          </mxGeometry>
        </mxCell>
        <mxCell id="g61i2aG3pp-v_uBdfmHI-13" value="&lt;font style=&quot;color: light-dark(rgb(0, 0, 0), rgb(255, 255, 255));&quot;&gt;字&lt;/font&gt;" style="rounded=0;whiteSpace=wrap;html=1;fillColor=#0050ef;strokeColor=#001DBC;shadow=0;sketch=1;curveFitting=1;jiggle=2;fontFamily=Comic Sans MS;align=center;fontColor=#ffffff;" parent="1" vertex="1">
          <mxGeometry x="241" y="126" width="53" height="14" as="geometry" />
        </mxCell>
        <mxCell id="g61i2aG3pp-v_uBdfmHI-20" value="Memory" style="text;html=1;align=center;verticalAlign=middle;resizable=0;points=[];autosize=1;strokeColor=none;fillColor=none;fontSize=15;" parent="1" vertex="1">
          <mxGeometry x="127" y="111" width="72" height="30" as="geometry" />
        </mxCell>
        <mxCell id="g61i2aG3pp-v_uBdfmHI-21" value="&lt;font style=&quot;color: light-dark(rgb(0, 0, 0), rgb(204, 204, 204));&quot;&gt;块号&lt;/font&gt;" style="text;html=1;align=center;verticalAlign=middle;resizable=0;points=[];autosize=1;strokeColor=none;fillColor=none;" parent="1" vertex="1">
          <mxGeometry x="70" y="117" width="42" height="26" as="geometry" />
        </mxCell>
        <mxCell id="ZbvgO4w3GOz_FiVFhkWz-3" value="&lt;font style=&quot;color: light-dark(rgb(0, 0, 0), rgb(204, 204, 204)); font-size: 10px;&quot;&gt;字号&lt;/font&gt;" style="text;html=1;align=center;verticalAlign=middle;resizable=0;points=[];autosize=1;strokeColor=none;fillColor=none;" parent="1" vertex="1">
          <mxGeometry x="292" y="103" width="38" height="26" as="geometry" />
        </mxCell>
        <mxCell id="ZbvgO4w3GOz_FiVFhkWz-5" value="&lt;font style=&quot;color: light-dark(rgb(0, 0, 0), rgb(204, 204, 204));&quot;&gt;0000&lt;/font&gt;" style="text;html=1;align=center;verticalAlign=middle;resizable=0;points=[];autosize=1;strokeColor=none;fillColor=none;" parent="1" vertex="1">
          <mxGeometry x="67" y="146" width="45" height="26" as="geometry" />
        </mxCell>
        <mxCell id="ZbvgO4w3GOz_FiVFhkWz-6" value="&lt;font style=&quot;color: light-dark(rgb(0, 0, 0), rgb(204, 204, 204));&quot;&gt;0001&lt;/font&gt;" style="text;html=1;align=center;verticalAlign=middle;resizable=0;points=[];autosize=1;strokeColor=none;fillColor=none;" parent="1" vertex="1">
          <mxGeometry x="67" y="173" width="45" height="26" as="geometry" />
        </mxCell>
        <mxCell id="ZbvgO4w3GOz_FiVFhkWz-8" value="" style="rounded=0;whiteSpace=wrap;html=1;fillColor=#6a00ff;fontColor=#ffffff;strokeColor=light-dark(#3700CC,#FFFFFF);shadow=0;sketch=1;curveFitting=1;jiggle=2;fontFamily=Comic Sans MS;align=center;" parent="1" vertex="1">
          <mxGeometry x="121" y="200" width="86" height="27" as="geometry" />
        </mxCell>
        <mxCell id="ZbvgO4w3GOz_FiVFhkWz-9" value="&lt;font style=&quot;color: light-dark(rgb(0, 0, 0), rgb(204, 204, 204));&quot;&gt;0010&lt;/font&gt;" style="text;html=1;align=center;verticalAlign=middle;resizable=0;points=[];autosize=1;strokeColor=none;fillColor=none;" parent="1" vertex="1">
          <mxGeometry x="67" y="200" width="45" height="26" as="geometry" />
        </mxCell>
        <mxCell id="ZbvgO4w3GOz_FiVFhkWz-10" value="" style="rounded=0;whiteSpace=wrap;html=1;fillColor=#6a00ff;fontColor=#ffffff;strokeColor=light-dark(#3700CC,#FFFFFF);shadow=0;sketch=1;curveFitting=1;jiggle=2;fontFamily=Comic Sans MS;align=center;" parent="1" vertex="1">
          <mxGeometry x="121" y="226" width="86" height="27" as="geometry" />
        </mxCell>
        <mxCell id="ZbvgO4w3GOz_FiVFhkWz-11" value="&lt;font style=&quot;color: light-dark(rgb(0, 0, 0), rgb(204, 204, 204));&quot;&gt;0011&lt;/font&gt;" style="text;html=1;align=center;verticalAlign=middle;resizable=0;points=[];autosize=1;strokeColor=none;fillColor=none;" parent="1" vertex="1">
          <mxGeometry x="68" y="226" width="44" height="26" as="geometry" />
        </mxCell>
        <mxCell id="ZbvgO4w3GOz_FiVFhkWz-12" value="" style="rounded=0;whiteSpace=wrap;html=1;fillColor=#6a00ff;fontColor=#ffffff;strokeColor=light-dark(#3700CC,#FFFFFF);shadow=0;sketch=1;curveFitting=1;jiggle=2;fontFamily=Comic Sans MS;align=center;" parent="1" vertex="1">
          <mxGeometry x="121" y="253" width="86" height="27" as="geometry" />
        </mxCell>
        <mxCell id="ZbvgO4w3GOz_FiVFhkWz-13" value="&lt;font style=&quot;color: light-dark(rgb(0, 0, 0), rgb(204, 204, 204));&quot;&gt;0100&lt;/font&gt;" style="text;html=1;align=center;verticalAlign=middle;resizable=0;points=[];autosize=1;strokeColor=none;fillColor=none;" parent="1" vertex="1">
          <mxGeometry x="67" y="253" width="45" height="26" as="geometry" />
        </mxCell>
        <mxCell id="ZbvgO4w3GOz_FiVFhkWz-14" value="" style="rounded=0;whiteSpace=wrap;html=1;fillColor=#6a00ff;fontColor=#ffffff;strokeColor=light-dark(#3700CC,#FFFFFF);shadow=0;sketch=1;curveFitting=1;jiggle=2;fontFamily=Comic Sans MS;align=center;" parent="1" vertex="1">
          <mxGeometry x="121" y="280" width="86" height="27" as="geometry" />
        </mxCell>
        <mxCell id="ZbvgO4w3GOz_FiVFhkWz-15" value="&lt;font style=&quot;color: light-dark(rgb(0, 0, 0), rgb(204, 204, 204));&quot;&gt;0101&lt;/font&gt;" style="text;html=1;align=center;verticalAlign=middle;resizable=0;points=[];autosize=1;strokeColor=none;fillColor=none;" parent="1" vertex="1">
          <mxGeometry x="67" y="280" width="45" height="26" as="geometry" />
        </mxCell>
        <mxCell id="ZbvgO4w3GOz_FiVFhkWz-16" value="" style="rounded=0;whiteSpace=wrap;html=1;fillColor=#6a00ff;fontColor=#ffffff;strokeColor=light-dark(#3700CC,#FFFFFF);shadow=0;sketch=1;curveFitting=1;jiggle=2;fontFamily=Comic Sans MS;align=center;" parent="1" vertex="1">
          <mxGeometry x="121" y="307" width="86" height="27" as="geometry" />
        </mxCell>
        <mxCell id="ZbvgO4w3GOz_FiVFhkWz-17" value="&lt;font style=&quot;color: light-dark(rgb(0, 0, 0), rgb(204, 204, 204));&quot;&gt;0110&lt;/font&gt;" style="text;html=1;align=center;verticalAlign=middle;resizable=0;points=[];autosize=1;strokeColor=none;fillColor=none;" parent="1" vertex="1">
          <mxGeometry x="68" y="307" width="44" height="26" as="geometry" />
        </mxCell>
        <mxCell id="ZbvgO4w3GOz_FiVFhkWz-18" value="" style="rounded=0;whiteSpace=wrap;html=1;fillColor=#6a00ff;fontColor=#ffffff;strokeColor=light-dark(#3700CC,#FFFFFF);shadow=0;sketch=1;curveFitting=1;jiggle=2;fontFamily=Comic Sans MS;align=center;" parent="1" vertex="1">
          <mxGeometry x="121" y="335" width="86" height="27" as="geometry" />
        </mxCell>
        <mxCell id="ZbvgO4w3GOz_FiVFhkWz-19" value="&lt;font style=&quot;color: light-dark(rgb(0, 0, 0), rgb(204, 204, 204));&quot;&gt;0111&lt;/font&gt;" style="text;html=1;align=center;verticalAlign=middle;resizable=0;points=[];autosize=1;strokeColor=none;fillColor=none;" parent="1" vertex="1">
          <mxGeometry x="68" y="335" width="43" height="26" as="geometry" />
        </mxCell>
        <mxCell id="ZbvgO4w3GOz_FiVFhkWz-20" value="" style="rounded=0;whiteSpace=wrap;html=1;fillColor=#6a00ff;fontColor=#ffffff;strokeColor=light-dark(#3700CC,#FFFFFF);shadow=0;sketch=1;curveFitting=1;jiggle=2;fontFamily=Comic Sans MS;align=center;" parent="1" vertex="1">
          <mxGeometry x="120" y="362" width="86" height="27" as="geometry" />
        </mxCell>
        <mxCell id="ZbvgO4w3GOz_FiVFhkWz-21" value="&lt;font style=&quot;color: light-dark(rgb(0, 0, 0), rgb(204, 204, 204));&quot;&gt;1000&lt;/font&gt;" style="text;html=1;align=center;verticalAlign=middle;resizable=0;points=[];autosize=1;strokeColor=none;fillColor=none;" parent="1" vertex="1">
          <mxGeometry x="66" y="362" width="45" height="26" as="geometry" />
        </mxCell>
        <mxCell id="ZbvgO4w3GOz_FiVFhkWz-22" value="" style="rounded=0;whiteSpace=wrap;html=1;fillColor=#6a00ff;fontColor=#ffffff;strokeColor=light-dark(#3700CC,#FFFFFF);shadow=0;sketch=1;curveFitting=1;jiggle=2;fontFamily=Comic Sans MS;align=center;" parent="1" vertex="1">
          <mxGeometry x="120" y="389" width="86" height="27" as="geometry" />
        </mxCell>
        <mxCell id="ZbvgO4w3GOz_FiVFhkWz-23" value="&lt;font style=&quot;color: light-dark(rgb(0, 0, 0), rgb(204, 204, 204));&quot;&gt;1001&lt;/font&gt;" style="text;html=1;align=center;verticalAlign=middle;resizable=0;points=[];autosize=1;strokeColor=none;fillColor=none;" parent="1" vertex="1">
          <mxGeometry x="66" y="389" width="45" height="26" as="geometry" />
        </mxCell>
        <mxCell id="ZbvgO4w3GOz_FiVFhkWz-24" value="" style="rounded=0;whiteSpace=wrap;html=1;fillColor=#6a00ff;fontColor=#ffffff;strokeColor=light-dark(#3700CC,#FFFFFF);shadow=0;sketch=1;curveFitting=1;jiggle=2;fontFamily=Comic Sans MS;align=center;" parent="1" vertex="1">
          <mxGeometry x="120" y="416" width="86" height="27" as="geometry" />
        </mxCell>
        <mxCell id="ZbvgO4w3GOz_FiVFhkWz-25" value="&lt;font style=&quot;color: light-dark(rgb(0, 0, 0), rgb(204, 204, 204));&quot;&gt;1010&lt;/font&gt;" style="text;html=1;align=center;verticalAlign=middle;resizable=0;points=[];autosize=1;strokeColor=none;fillColor=none;" parent="1" vertex="1">
          <mxGeometry x="66" y="416" width="45" height="26" as="geometry" />
        </mxCell>
        <mxCell id="ZbvgO4w3GOz_FiVFhkWz-26" value="" style="rounded=0;whiteSpace=wrap;html=1;fillColor=#6a00ff;fontColor=#ffffff;strokeColor=light-dark(#3700CC,#FFFFFF);shadow=0;sketch=1;curveFitting=1;jiggle=2;fontFamily=Comic Sans MS;align=center;" parent="1" vertex="1">
          <mxGeometry x="120" y="443" width="86" height="27" as="geometry" />
        </mxCell>
        <mxCell id="ZbvgO4w3GOz_FiVFhkWz-27" value="&lt;font style=&quot;color: light-dark(rgb(0, 0, 0), rgb(204, 204, 204));&quot;&gt;1011&lt;/font&gt;" style="text;html=1;align=center;verticalAlign=middle;resizable=0;points=[];autosize=1;strokeColor=none;fillColor=none;" parent="1" vertex="1">
          <mxGeometry x="67" y="443" width="44" height="26" as="geometry" />
        </mxCell>
        <mxCell id="ZbvgO4w3GOz_FiVFhkWz-28" value="" style="rounded=0;whiteSpace=wrap;html=1;fillColor=#6a00ff;fontColor=#ffffff;strokeColor=light-dark(#3700CC,#FFFFFF);shadow=0;sketch=1;curveFitting=1;jiggle=2;fontFamily=Comic Sans MS;align=center;" parent="1" vertex="1">
          <mxGeometry x="120" y="470" width="86" height="27" as="geometry" />
        </mxCell>
        <mxCell id="ZbvgO4w3GOz_FiVFhkWz-29" value="&lt;font style=&quot;color: light-dark(rgb(0, 0, 0), rgb(204, 204, 204));&quot;&gt;1100&lt;/font&gt;" style="text;html=1;align=center;verticalAlign=middle;resizable=0;points=[];autosize=1;strokeColor=none;fillColor=none;" parent="1" vertex="1">
          <mxGeometry x="67" y="470" width="44" height="26" as="geometry" />
        </mxCell>
        <mxCell id="ZbvgO4w3GOz_FiVFhkWz-30" value="" style="rounded=0;whiteSpace=wrap;html=1;fillColor=#6a00ff;fontColor=#ffffff;strokeColor=light-dark(#3700CC,#FFFFFF);shadow=0;sketch=1;curveFitting=1;jiggle=2;fontFamily=Comic Sans MS;align=center;" parent="1" vertex="1">
          <mxGeometry x="121" y="496" width="86" height="27" as="geometry" />
        </mxCell>
        <mxCell id="ZbvgO4w3GOz_FiVFhkWz-31" value="&lt;font style=&quot;color: light-dark(rgb(0, 0, 0), rgb(204, 204, 204));&quot;&gt;1101&lt;/font&gt;" style="text;html=1;align=center;verticalAlign=middle;resizable=0;points=[];autosize=1;strokeColor=none;fillColor=none;" parent="1" vertex="1">
          <mxGeometry x="68" y="496" width="44" height="26" as="geometry" />
        </mxCell>
        <mxCell id="ZbvgO4w3GOz_FiVFhkWz-32" value="" style="rounded=0;whiteSpace=wrap;html=1;fillColor=#6a00ff;fontColor=#ffffff;strokeColor=light-dark(#3700CC,#FFFFFF);shadow=0;sketch=1;curveFitting=1;jiggle=2;fontFamily=Comic Sans MS;align=center;" parent="1" vertex="1">
          <mxGeometry x="121" y="522" width="86" height="27" as="geometry" />
        </mxCell>
        <mxCell id="ZbvgO4w3GOz_FiVFhkWz-33" value="&lt;font style=&quot;color: light-dark(rgb(0, 0, 0), rgb(204, 204, 204));&quot;&gt;1110&lt;/font&gt;" style="text;html=1;align=center;verticalAlign=middle;resizable=0;points=[];autosize=1;strokeColor=none;fillColor=none;" parent="1" vertex="1">
          <mxGeometry x="68" y="522" width="43" height="26" as="geometry" />
        </mxCell>
        <mxCell id="ZbvgO4w3GOz_FiVFhkWz-36" value="" style="rounded=0;whiteSpace=wrap;html=1;fillColor=#6a00ff;fontColor=#ffffff;strokeColor=light-dark(#3700CC,#FFFFFF);shadow=0;sketch=1;curveFitting=1;jiggle=2;fontFamily=Comic Sans MS;align=center;" parent="1" vertex="1">
          <mxGeometry x="121" y="549" width="86" height="27" as="geometry" />
        </mxCell>
        <mxCell id="ZbvgO4w3GOz_FiVFhkWz-37" value="&lt;font style=&quot;color: light-dark(rgb(204, 204, 204), rgb(204, 204, 204));&quot;&gt;1111&lt;/font&gt;" style="text;html=1;align=center;verticalAlign=middle;resizable=0;points=[];autosize=1;strokeColor=none;fillColor=none;" parent="1" vertex="1">
          <mxGeometry x="69" y="549" width="42" height="26" as="geometry" />
        </mxCell>
        <mxCell id="ZbvgO4w3GOz_FiVFhkWz-40" value="&lt;font style=&quot;color: light-dark(rgb(255, 255, 255), rgb(255, 255, 255));&quot;&gt;数据块&lt;/font&gt;" style="rounded=0;whiteSpace=wrap;html=1;fillColor=#6a00ff;fontColor=#ffffff;strokeColor=light-dark(#3700CC,#FFFFFF);shadow=0;sketch=1;curveFitting=1;jiggle=2;fontFamily=Comic Sans MS;align=center;" parent="1" vertex="1">
          <mxGeometry x="476" y="177" width="86" height="27" as="geometry" />
        </mxCell>
        <mxCell id="ZbvgO4w3GOz_FiVFhkWz-41" value="" style="rounded=0;whiteSpace=wrap;html=1;fillColor=#6a00ff;fontColor=#ffffff;strokeColor=light-dark(#3700CC,#FFFFFF);shadow=0;sketch=1;curveFitting=1;jiggle=2;fontFamily=Comic Sans MS;align=center;" parent="1" vertex="1">
          <mxGeometry x="476" y="204" width="86" height="27" as="geometry" />
        </mxCell>
        <mxCell id="ZbvgO4w3GOz_FiVFhkWz-42" value="" style="endArrow=none;dashed=1;html=1;rounded=0;" parent="1" edge="1">
          <mxGeometry width="50" height="50" relative="1" as="geometry">
            <mxPoint x="563" y="174" as="sourcePoint" />
            <mxPoint x="595" y="156" as="targetPoint" />
          </mxGeometry>
        </mxCell>
        <mxCell id="ZbvgO4w3GOz_FiVFhkWz-43" value="" style="endArrow=none;dashed=1;html=1;rounded=0;" parent="1" edge="1">
          <mxGeometry width="50" height="50" relative="1" as="geometry">
            <mxPoint x="566" y="204" as="sourcePoint" />
            <mxPoint x="595" y="215" as="targetPoint" />
          </mxGeometry>
        </mxCell>
        <mxCell id="ZbvgO4w3GOz_FiVFhkWz-48" value="Cache" style="text;html=1;align=center;verticalAlign=middle;resizable=0;points=[];autosize=1;strokeColor=none;fillColor=none;fontSize=15;" parent="1" vertex="1">
          <mxGeometry x="488" y="142" width="61" height="30" as="geometry" />
        </mxCell>
        <mxCell id="ZbvgO4w3GOz_FiVFhkWz-49" value="&lt;font style=&quot;color: light-dark(rgb(0, 0, 0), rgb(204, 204, 204));&quot;&gt;行号&lt;/font&gt;" style="text;html=1;align=center;verticalAlign=middle;resizable=0;points=[];autosize=1;strokeColor=none;fillColor=none;" parent="1" vertex="1">
          <mxGeometry x="427" y="148" width="42" height="26" as="geometry" />
        </mxCell>
        <mxCell id="ZbvgO4w3GOz_FiVFhkWz-51" value="&lt;font style=&quot;color: light-dark(rgb(0, 0, 0), rgb(204, 204, 204));&quot;&gt;00&lt;/font&gt;" style="text;html=1;align=center;verticalAlign=middle;resizable=0;points=[];autosize=1;strokeColor=none;fillColor=none;" parent="1" vertex="1">
          <mxGeometry x="429" y="177" width="31" height="26" as="geometry" />
        </mxCell>
        <mxCell id="ZbvgO4w3GOz_FiVFhkWz-52" value="&lt;font style=&quot;color: light-dark(rgb(0, 0, 0), rgb(204, 204, 204));&quot;&gt;01&lt;/font&gt;" style="text;html=1;align=center;verticalAlign=middle;resizable=0;points=[];autosize=1;strokeColor=none;fillColor=none;" parent="1" vertex="1">
          <mxGeometry x="429" y="204" width="31" height="26" as="geometry" />
        </mxCell>
        <mxCell id="ZbvgO4w3GOz_FiVFhkWz-53" value="" style="rounded=0;whiteSpace=wrap;html=1;fillColor=#6a00ff;fontColor=#ffffff;strokeColor=light-dark(#3700CC,#FFFFFF);shadow=0;sketch=1;curveFitting=1;jiggle=2;fontFamily=Comic Sans MS;align=center;" parent="1" vertex="1">
          <mxGeometry x="476" y="231" width="86" height="27" as="geometry" />
        </mxCell>
        <mxCell id="ZbvgO4w3GOz_FiVFhkWz-54" value="&lt;font style=&quot;color: light-dark(rgb(0, 0, 0), rgb(204, 204, 204));&quot;&gt;10&lt;/font&gt;" style="text;html=1;align=center;verticalAlign=middle;resizable=0;points=[];autosize=1;strokeColor=none;fillColor=none;" parent="1" vertex="1">
          <mxGeometry x="429" y="231" width="31" height="26" as="geometry" />
        </mxCell>
        <mxCell id="ZbvgO4w3GOz_FiVFhkWz-55" value="" style="rounded=0;whiteSpace=wrap;html=1;fillColor=#6a00ff;fontColor=#ffffff;strokeColor=light-dark(#3700CC,#FFFFFF);shadow=0;sketch=1;curveFitting=1;jiggle=2;fontFamily=Comic Sans MS;align=center;" parent="1" vertex="1">
          <mxGeometry x="476" y="257" width="86" height="27" as="geometry" />
        </mxCell>
        <mxCell id="ZbvgO4w3GOz_FiVFhkWz-56" value="&lt;font style=&quot;color: light-dark(rgb(0, 0, 0), rgb(204, 204, 204));&quot;&gt;11&lt;/font&gt;" style="text;html=1;align=center;verticalAlign=middle;resizable=0;points=[];autosize=1;strokeColor=none;fillColor=none;" parent="1" vertex="1">
          <mxGeometry x="430" y="257" width="30" height="26" as="geometry" />
        </mxCell>
        <mxCell id="ZbvgO4w3GOz_FiVFhkWz-81" value="&lt;font style=&quot;color: light-dark(rgb(255, 255, 255), rgb(204, 204, 204));&quot;&gt;&lt;span style=&quot;font-size: 10px;&quot;&gt;00&lt;/span&gt;&lt;/font&gt;" style="text;html=1;align=center;verticalAlign=middle;resizable=0;points=[];autosize=1;strokeColor=none;fillColor=none;" parent="1" vertex="1">
          <mxGeometry x="296" y="119" width="29" height="26" as="geometry" />
        </mxCell>
        <mxCell id="ZbvgO4w3GOz_FiVFhkWz-83" value="" style="rounded=0;whiteSpace=wrap;html=1;fillColor=#0050ef;strokeColor=#001DBC;shadow=0;sketch=1;curveFitting=1;jiggle=2;fontFamily=Comic Sans MS;align=center;fontColor=#ffffff;" parent="1" vertex="1">
          <mxGeometry x="241" y="141" width="53" height="14" as="geometry" />
        </mxCell>
        <mxCell id="ZbvgO4w3GOz_FiVFhkWz-84" value="&lt;font style=&quot;color: light-dark(rgb(255, 255, 255), rgb(204, 204, 204));&quot;&gt;&lt;span style=&quot;font-size: 10px;&quot;&gt;01&lt;/span&gt;&lt;/font&gt;" style="text;html=1;align=center;verticalAlign=middle;resizable=0;points=[];autosize=1;strokeColor=none;fillColor=none;" parent="1" vertex="1">
          <mxGeometry x="296" y="134" width="29" height="26" as="geometry" />
        </mxCell>
        <mxCell id="ZbvgO4w3GOz_FiVFhkWz-85" value="" style="rounded=0;whiteSpace=wrap;html=1;fillColor=#0050ef;strokeColor=#001DBC;shadow=0;sketch=1;curveFitting=1;jiggle=2;fontFamily=Comic Sans MS;align=center;fontColor=#ffffff;" parent="1" vertex="1">
          <mxGeometry x="241" y="155" width="53" height="14" as="geometry" />
        </mxCell>
        <mxCell id="ZbvgO4w3GOz_FiVFhkWz-86" value="&lt;font style=&quot;color: light-dark(rgb(255, 255, 255), rgb(204, 204, 204));&quot;&gt;&lt;span style=&quot;font-size: 10px;&quot;&gt;10&lt;/span&gt;&lt;/font&gt;" style="text;html=1;align=center;verticalAlign=middle;resizable=0;points=[];autosize=1;strokeColor=none;fillColor=none;" parent="1" vertex="1">
          <mxGeometry x="296" y="148" width="29" height="26" as="geometry" />
        </mxCell>
        <mxCell id="ZbvgO4w3GOz_FiVFhkWz-87" value="" style="rounded=0;whiteSpace=wrap;html=1;fillColor=#0050ef;strokeColor=#001DBC;shadow=0;sketch=1;curveFitting=1;jiggle=2;fontFamily=Comic Sans MS;align=center;fontColor=#ffffff;" parent="1" vertex="1">
          <mxGeometry x="242" y="170" width="53" height="14" as="geometry" />
        </mxCell>
        <mxCell id="ZbvgO4w3GOz_FiVFhkWz-88" value="&lt;font style=&quot;color: light-dark(rgb(255, 255, 255), rgb(204, 204, 204));&quot;&gt;&lt;span style=&quot;font-size: 10px;&quot;&gt;11&lt;/span&gt;&lt;/font&gt;" style="text;html=1;align=center;verticalAlign=middle;resizable=0;points=[];autosize=1;strokeColor=none;fillColor=none;" parent="1" vertex="1">
          <mxGeometry x="297" y="163" width="28" height="26" as="geometry" />
        </mxCell>
        <mxCell id="ZbvgO4w3GOz_FiVFhkWz-89" value="&lt;font style=&quot;color: light-dark(rgb(0, 0, 0), rgb(255, 255, 255));&quot;&gt;字&lt;/font&gt;" style="rounded=0;whiteSpace=wrap;html=1;fillColor=#0050ef;strokeColor=#001DBC;shadow=0;sketch=1;curveFitting=1;jiggle=2;fontFamily=Comic Sans MS;align=center;fontColor=#ffffff;" parent="1" vertex="1">
          <mxGeometry x="596" y="157" width="53" height="14" as="geometry" />
        </mxCell>
        <mxCell id="ZbvgO4w3GOz_FiVFhkWz-90" value="&lt;font style=&quot;color: light-dark(rgb(0, 0, 0), rgb(204, 204, 204)); font-size: 10px;&quot;&gt;字号&lt;/font&gt;" style="text;html=1;align=center;verticalAlign=middle;resizable=0;points=[];autosize=1;strokeColor=none;fillColor=none;" parent="1" vertex="1">
          <mxGeometry x="647" y="134" width="38" height="26" as="geometry" />
        </mxCell>
        <mxCell id="ZbvgO4w3GOz_FiVFhkWz-91" value="&lt;font style=&quot;color: light-dark(rgb(255, 255, 255), rgb(204, 204, 204));&quot;&gt;&lt;span style=&quot;font-size: 10px;&quot;&gt;00&lt;/span&gt;&lt;/font&gt;" style="text;html=1;align=center;verticalAlign=middle;resizable=0;points=[];autosize=1;strokeColor=none;fillColor=none;" parent="1" vertex="1">
          <mxGeometry x="651" y="150" width="29" height="26" as="geometry" />
        </mxCell>
        <mxCell id="ZbvgO4w3GOz_FiVFhkWz-92" value="" style="rounded=0;whiteSpace=wrap;html=1;fillColor=#0050ef;strokeColor=#001DBC;shadow=0;sketch=1;curveFitting=1;jiggle=2;fontFamily=Comic Sans MS;align=center;fontColor=#ffffff;" parent="1" vertex="1">
          <mxGeometry x="596" y="172" width="53" height="14" as="geometry" />
        </mxCell>
        <mxCell id="ZbvgO4w3GOz_FiVFhkWz-93" value="&lt;font style=&quot;color: light-dark(rgb(255, 255, 255), rgb(204, 204, 204));&quot;&gt;&lt;span style=&quot;font-size: 10px;&quot;&gt;01&lt;/span&gt;&lt;/font&gt;" style="text;html=1;align=center;verticalAlign=middle;resizable=0;points=[];autosize=1;strokeColor=none;fillColor=none;" parent="1" vertex="1">
          <mxGeometry x="651" y="165" width="29" height="26" as="geometry" />
        </mxCell>
        <mxCell id="ZbvgO4w3GOz_FiVFhkWz-94" value="" style="rounded=0;whiteSpace=wrap;html=1;fillColor=#0050ef;strokeColor=#001DBC;shadow=0;sketch=1;curveFitting=1;jiggle=2;fontFamily=Comic Sans MS;align=center;fontColor=#ffffff;" parent="1" vertex="1">
          <mxGeometry x="596" y="186" width="53" height="14" as="geometry" />
        </mxCell>
        <mxCell id="ZbvgO4w3GOz_FiVFhkWz-95" value="&lt;font style=&quot;color: light-dark(rgb(255, 255, 255), rgb(204, 204, 204));&quot;&gt;&lt;span style=&quot;font-size: 10px;&quot;&gt;10&lt;/span&gt;&lt;/font&gt;" style="text;html=1;align=center;verticalAlign=middle;resizable=0;points=[];autosize=1;strokeColor=none;fillColor=none;" parent="1" vertex="1">
          <mxGeometry x="651" y="179" width="29" height="26" as="geometry" />
        </mxCell>
        <mxCell id="ZbvgO4w3GOz_FiVFhkWz-96" value="" style="rounded=0;whiteSpace=wrap;html=1;fillColor=#0050ef;strokeColor=#001DBC;shadow=0;sketch=1;curveFitting=1;jiggle=2;fontFamily=Comic Sans MS;align=center;fontColor=#ffffff;" parent="1" vertex="1">
          <mxGeometry x="597" y="201" width="53" height="14" as="geometry" />
        </mxCell>
        <mxCell id="ZbvgO4w3GOz_FiVFhkWz-97" value="&lt;font style=&quot;color: light-dark(rgb(255, 255, 255), rgb(204, 204, 204));&quot;&gt;&lt;span style=&quot;font-size: 10px;&quot;&gt;11&lt;/span&gt;&lt;/font&gt;" style="text;html=1;align=center;verticalAlign=middle;resizable=0;points=[];autosize=1;strokeColor=none;fillColor=none;" parent="1" vertex="1">
          <mxGeometry x="652" y="194" width="28" height="26" as="geometry" />
        </mxCell>
      </root>
    </mxGraphModel>
  </diagram>
</mxfile>
